<svg width="31" height="45" viewBox="0 0 31 45" fill="none" xmlns="http://www.w3.org/2000/svg">
<path d="M15.5 0.5C8.04591 0.5 0 6.28325 0 15.625C0 20.2354 1.87973 24.1143 5.48982 27.054C5.52731 27.0998 5.57091 27.1405 5.61945 27.175C8.29814 30.0103 8.43341 30.5492 8.45173 31.7964C8.46018 32.29 8.45595 32.4358 8.45173 32.5155L8.44609 32.8029C8.42495 33.4244 8.39255 34.4653 9.71286 34.8585L21.118 37.3074C21.2084 37.3267 21.3018 37.3285 21.3929 37.3125C21.484 37.2966 21.571 37.2634 21.6489 37.2147C21.7269 37.166 21.7942 37.1028 21.8471 37.0287C21.8999 36.9546 21.9374 36.871 21.9572 36.7828C21.977 36.6946 21.9788 36.6035 21.9625 36.5146C21.9462 36.4257 21.9121 36.3408 21.8622 36.2648C21.8122 36.1887 21.7475 36.123 21.6715 36.0714C21.5956 36.0198 21.51 35.9833 21.4196 35.964L10.0694 33.5289C9.85095 33.4642 9.83264 33.4588 9.85236 32.8441L9.85659 32.5815C9.85659 32.5815 9.87068 32.4743 9.85941 31.7758C9.83264 30.0309 9.44373 29.188 6.60582 26.1946C6.55169 26.1294 6.48579 26.0744 6.41136 26.0324C3.09155 23.2782 1.40909 19.7775 1.40909 15.625C1.40909 7.13163 8.72227 1.875 15.5 1.875C22.4271 1.875 29.5909 7.01888 29.5909 15.625C29.5909 21.0947 26.8742 24.1101 24.6337 26.0076C24.5556 26.0443 24.4853 26.0952 24.4266 26.1575C21.5563 29.188 21.1674 30.0309 21.1406 31.7758V31.9174L21.1392 31.9655C21.135 32.07 21.1195 32.1278 21.1209 32.1497C21.0659 32.1417 21.0109 32.1334 20.956 32.125L15.0449 30.7679C14.9547 30.7472 14.8613 30.744 14.77 30.7586C14.6786 30.7731 14.5911 30.8051 14.5124 30.8527C14.4337 30.9002 14.3653 30.9625 14.3113 31.0358C14.2572 31.1091 14.2185 31.1921 14.1973 31.2801C14.1761 31.368 14.1729 31.4591 14.1878 31.5483C14.2027 31.6375 14.2355 31.7229 14.2842 31.7997C14.3329 31.8765 14.3967 31.9432 14.4719 31.9959C14.547 32.0487 14.6321 32.0864 14.7222 32.1071L20.5615 33.4436C20.639 33.4711 21.3407 33.6939 21.9325 33.2882C22.1904 33.1109 22.4905 32.763 22.544 32.0975L22.5483 32.0329L22.5511 31.8967L22.5497 31.861L22.5511 31.7977C22.5694 30.5575 22.7019 30.0185 25.3763 27.1833C25.389 27.1736 25.4031 27.164 25.4144 27.153C29.1724 24.0716 31 20.3 31 15.625C31 6.15812 23.119 0.5 15.5 0.5Z" fill="white"/>
<path d="M21.1364 41.0625C21.2963 41.0627 21.4515 41.0097 21.5763 40.9122C21.701 40.8147 21.788 40.6785 21.8226 40.5262C21.8433 40.4382 21.8459 40.347 21.8303 40.258C21.8147 40.169 21.7813 40.0839 21.732 40.0075C21.6826 39.9311 21.6183 39.865 21.5427 39.8129C21.4671 39.7608 21.3817 39.7238 21.2914 39.704L10.0187 37.2097C9.83831 37.1741 9.65081 37.2087 9.49627 37.3062C9.34173 37.4038 9.23243 37.5564 9.19175 37.7316C9.15107 37.9067 9.18223 38.0904 9.27857 38.2434C9.37491 38.3965 9.52878 38.5066 9.70728 38.5503L20.98 41.0446C21.0313 41.0565 21.0837 41.0625 21.1364 41.0625Z" fill="white"/>
<path d="M10.7217 41.1367C10.6301 41.1131 10.5346 41.1077 10.4408 41.121C10.347 41.1342 10.2569 41.1657 10.1759 41.2137C10.095 41.2617 10.0247 41.3251 9.96942 41.4002C9.91413 41.4753 9.87493 41.5605 9.85416 41.6507C9.8334 41.7409 9.83149 41.8343 9.84857 41.9253C9.86564 42.0162 9.90133 42.1029 9.95352 42.18C10.0057 42.2572 10.0733 42.3233 10.1523 42.3744C10.2312 42.4255 10.32 42.4605 10.4131 42.4774L19.5722 44.4821C19.6638 44.5058 19.7594 44.5111 19.8532 44.4979C19.9469 44.4847 20.037 44.4531 20.118 44.4051C20.199 44.3572 20.2692 44.2937 20.3245 44.2186C20.3798 44.1436 20.419 44.0584 20.4398 43.9681C20.4606 43.8779 20.4625 43.7846 20.4454 43.6936C20.4283 43.6027 20.3926 43.516 20.3404 43.4388C20.2883 43.3617 20.2207 43.2956 20.1417 43.2445C20.0627 43.1934 19.974 43.1583 19.8808 43.1415L10.7217 41.1367Z" fill="white"/>
</svg>
