<svg width="41" height="41" viewBox="0 0 41 41" fill="none" xmlns="http://www.w3.org/2000/svg">
<path d="M39.2916 2.16661C39.2916 2.16661 28.1396 1.40328 23.9166 5.49995C23.8773 5.56161 17.0833 12.1666 17.0833 12.1666L8.54163 13.8333L3.41663 17.1666L17.0833 23.8333L23.9166 37.1666L27.3333 32.1666L29.0416 23.8333C29.0416 23.8333 35.8117 17.2049 35.875 17.1666C40.074 13.0466 39.2916 2.16661 39.2916 2.16661ZM29.0416 13.8333C28.5885 13.8333 28.154 13.6577 27.8336 13.3451C27.5133 13.0326 27.3333 12.6086 27.3333 12.1666C27.3333 11.7246 27.5133 11.3007 27.8336 10.9881C28.154 10.6755 28.5885 10.4999 29.0416 10.4999C29.4947 10.4999 29.9292 10.6755 30.2496 10.9881C30.57 11.3007 30.75 11.7246 30.75 12.1666C30.75 12.6086 30.57 13.0326 30.2496 13.3451C29.9292 13.6577 29.4947 13.8333 29.0416 13.8333ZM11.9583 28.8333C10.25 27.1666 6.83329 27.1666 5.12496 28.8333C3.41663 30.4999 3.41663 37.1666 3.41663 37.1666C3.41663 37.1666 10.25 37.1666 11.9583 35.4999C13.6666 33.8333 13.6666 30.4999 11.9583 28.8333Z" stroke="white"/>
</svg>
