<svg width="50" height="51" viewBox="0 0 50 51" fill="none" xmlns="http://www.w3.org/2000/svg">
<path d="M25 0.5C11.2063 0.5 0 11.7063 0 25.5C0 39.2938 11.2063 50.5 25 50.5C38.7938 50.5 50 39.2938 50 25.5C50 11.7063 38.7938 0.5 25 0.5ZM25 2.0625C30.9813 2.0625 36.4172 4.31719 40.5594 8.00313H9.43906C13.7167 4.17398 19.2573 2.05857 24.9984 2.0625H25ZM10.0266 9.56563H39.975L25.0016 39.5047L10.0266 9.56563ZM7.50313 9.94062V41.0609C3.67398 36.7833 1.55857 31.2427 1.5625 25.5016C1.5625 19.5203 3.81719 14.0844 7.50313 9.94219V9.94062ZM42.4969 9.94062C46.326 14.2183 48.4414 19.7589 48.4375 25.5C48.4375 31.4813 46.1828 36.9172 42.4969 41.0594V9.94062ZM9.06563 11.1281L24.2188 41.4344H9.06563V11.1281ZM40.9344 11.1281V41.4344H25.7812L40.9422 11.1281H40.9344ZM9.44062 42.9969H40.5609C36.2797 46.8297 30.7391 48.9375 25.0016 48.9375C19.2641 48.9375 13.7219 46.8297 9.44219 42.9969H9.44062Z" fill="white"/>
</svg>
