<svg width="70" height="70" viewBox="0 0 70 70" fill="none" xmlns="http://www.w3.org/2000/svg">
<path d="M35 0C15.6888 0 0 15.6888 0 35C0 54.3112 15.6888 70 35 70C54.3112 70 70 54.3112 70 35C70 15.6888 54.3112 0 35 0ZM35 2.1875C43.3737 2.1875 50.9841 5.34406 56.7831 10.5044H13.2147C19.2034 5.14357 26.9602 2.182 34.9978 2.1875H35ZM14.0372 12.6919H55.965L35.0022 54.6066L14.0372 12.6919ZM10.5044 13.2169V56.7853C5.14357 50.7966 2.182 43.0398 2.1875 35.0022C2.1875 26.6284 5.34406 19.0181 10.5044 13.2191V13.2169ZM59.4956 13.2169C64.8564 19.2056 67.818 26.9624 67.8125 35C67.8125 43.3737 64.6559 50.9841 59.4956 56.7831V13.2169ZM12.6919 14.8794L33.9062 57.3081H12.6919V14.8794ZM57.3081 14.8794V57.3081H36.0938L57.3191 14.8794H57.3081ZM13.2169 59.4956H56.7853C50.7916 64.8616 43.0347 67.8125 35.0022 67.8125C26.9697 67.8125 19.2106 64.8616 13.2191 59.4956H13.2169Z" fill="white"/>
</svg>
